<svg width="7" height="7" viewBox="0 0 7 7" fill="none" xmlns="http://www.w3.org/2000/svg">
    <g stroke="#454545" stroke-width="0.6" stroke-linecap="round" stroke-linejoin="round">
        <path
            d="M2.55078 1.05078C2.55078 0.851869 2.6298 0.661103 2.77045 0.520451C2.9111 0.379799 3.10187 0.300781 3.30078 0.300781C3.49969 0.300781 3.69046 0.379799 3.83111 0.520451C3.97176 0.661103 4.05078 0.851869 4.05078 1.05078C4.48143 1.25442 4.84856 1.5714 5.1128 1.96777C5.37704 2.36413 5.52845 2.82493 5.55078 3.30078V4.42578C5.579 4.65892 5.66157 4.88218 5.79184 5.07758C5.9221 5.27298 6.09643 5.43506 6.30078 5.55078H0.300781C0.505133 5.43506 0.67946 5.27298 0.809726 5.07758C0.939993 4.88218 1.02256 4.65892 1.05078 4.42578V3.30078C1.07312 2.82493 1.22452 2.36413 1.48876 1.96777C1.75301 1.5714 2.12013 1.25442 2.55078 1.05078Z" />
        <path
            d="M1.80078 5.55078V5.73828C1.80078 5.88747 1.95882 6.03054 2.24012 6.13603C2.52143 6.24152 2.90296 6.30078 3.30078 6.30078C3.69861 6.30078 4.08014 6.24152 4.36144 6.13603C4.64275 6.03054 4.80078 5.88747 4.80078 5.73828V5.55078" />
    </g>
</svg>